<?xml version="1.0" encoding="iso-8859-1"?>
<!-- Generator: Adobe Illustrator 19.2.1, SVG Export Plug-In . SVG Version: 6.00 Build 0)  -->
<svg version="1.1" id="&#x421;&#x43B;&#x43E;&#x439;_1"
	 xmlns="http://www.w3.org/2000/svg" xmlns:xlink="http://www.w3.org/1999/xlink" x="0px" y="0px" viewBox="0 0 79.37 79.37"
	 style="enable-background:new 0 0 79.37 79.37;" xml:space="preserve">
<g>
	<rect style="fill:#383737;" width="79.37" height="79.37"/>
	<g>
		<g>
			<path style="fill:#FFFFFF;" d="M19.865,22.867h-1.918v6.742h0.804v-2.713h1.153c0.349,0,0.646-0.056,0.891-0.169
				c0.245-0.113,0.444-0.261,0.596-0.445c0.152-0.184,0.263-0.397,0.334-0.639c0.071-0.242,0.106-0.493,0.106-0.751
				c0-0.684-0.171-1.193-0.513-1.526C20.976,23.033,20.491,22.867,19.865,22.867z M20.965,25.351
				c-0.036,0.152-0.099,0.286-0.189,0.402c-0.091,0.117-0.21,0.211-0.359,0.281c-0.149,0.071-0.336,0.106-0.562,0.106h-1.104v-2.519
				h1.095c0.42,0,0.72,0.113,0.901,0.339c0.181,0.226,0.271,0.533,0.271,0.92C21.018,25.043,21,25.2,20.965,25.351z"/>
			<path style="fill:#FFFFFF;" d="M24.812,25.066c-0.151-0.11-0.326-0.189-0.526-0.237c-0.199-0.049-0.412-0.072-0.637-0.072
				c-0.328,0-0.626,0.07-0.894,0.21c-0.268,0.14-0.466,0.341-0.595,0.603c0.103,0.065,0.205,0.128,0.305,0.189
				c0.1,0.061,0.202,0.121,0.305,0.179c0.071-0.168,0.189-0.286,0.354-0.354c0.164-0.068,0.341-0.102,0.528-0.102
				c0.284,0,0.499,0.062,0.644,0.186c0.145,0.123,0.218,0.296,0.218,0.517v0.595h-0.881c-0.581,0-1.004,0.14-1.269,0.421
				c-0.265,0.281-0.397,0.634-0.397,1.061c0,0.188,0.027,0.367,0.082,0.538c0.055,0.171,0.139,0.322,0.252,0.45
				c0.113,0.129,0.257,0.231,0.431,0.305c0.175,0.074,0.378,0.112,0.611,0.112c0.252,0,0.476-0.035,0.673-0.106
				c0.197-0.071,0.35-0.178,0.46-0.32l0.039,0.02v0.349H25.3v-3.41c0-0.278-0.043-0.508-0.13-0.693
				C25.082,25.323,24.963,25.175,24.812,25.066z M24.515,28.112c0,0.305-0.089,0.52-0.266,0.643
				c-0.177,0.124-0.402,0.185-0.673,0.185c-0.29,0-0.507-0.066-0.649-0.2c-0.142-0.133-0.213-0.307-0.213-0.522
				c0-0.273,0.081-0.47,0.242-0.59c0.162-0.121,0.368-0.181,0.62-0.181h0.94V28.112z"/>
			<path style="fill:#FFFFFF;" d="M28.544,27.1c0.22-0.09,0.373-0.236,0.46-0.436c0.087-0.2,0.131-0.397,0.131-0.59
				c0-0.394-0.126-0.71-0.378-0.949c-0.252-0.239-0.652-0.359-1.201-0.359c-0.356,0-0.673,0.076-0.954,0.228
				c-0.281,0.151-0.48,0.373-0.596,0.663l0.61,0.359c0.077-0.187,0.202-0.321,0.373-0.402c0.171-0.081,0.37-0.121,0.596-0.121
				c0.246,0,0.434,0.058,0.567,0.174c0.132,0.116,0.199,0.271,0.199,0.465c0,0.207-0.055,0.368-0.165,0.484
				c-0.11,0.116-0.284,0.174-0.523,0.174h-0.591v0.659h0.581c0.226,0,0.407,0.065,0.543,0.194c0.136,0.129,0.203,0.307,0.203,0.532
				c0,0.265-0.086,0.46-0.257,0.586c-0.171,0.126-0.386,0.189-0.644,0.189c-0.239,0-0.445-0.043-0.62-0.13
				c-0.174-0.087-0.294-0.221-0.358-0.402l-0.639,0.339c0.123,0.323,0.326,0.553,0.61,0.692c0.284,0.14,0.62,0.208,1.008,0.208
				c0.523,0,0.937-0.127,1.24-0.383c0.303-0.255,0.455-0.615,0.455-1.08c0-0.245-0.042-0.457-0.126-0.635
				C28.984,27.383,28.809,27.229,28.544,27.1z"/>
			<path style="fill:#FFFFFF;" d="M33.108,25.487c-0.103-0.222-0.248-0.4-0.434-0.532c-0.186-0.132-0.437-0.199-0.753-0.199
				c-0.225,0-0.428,0.04-0.608,0.121c-0.18,0.081-0.341,0.212-0.482,0.393c-0.006,0-0.009-0.002-0.009-0.002
				s-0.004-0.008-0.01-0.008v-0.446h-0.785v6.733h0.785v-2.364h0.019c0.277,0.317,0.614,0.475,1.013,0.475
				c0.322,0,0.582-0.071,0.782-0.213c0.199-0.142,0.354-0.33,0.463-0.562c0.109-0.233,0.182-0.495,0.217-0.789
				c0.035-0.294,0.053-0.593,0.053-0.896c0-0.323-0.016-0.632-0.048-0.93C33.278,25.97,33.211,25.71,33.108,25.487z M32.545,27.856
				c-0.019,0.2-0.062,0.376-0.126,0.528c-0.065,0.151-0.155,0.273-0.272,0.363c-0.116,0.091-0.274,0.135-0.475,0.135
				c-0.2,0-0.358-0.048-0.475-0.145c-0.116-0.097-0.203-0.221-0.262-0.373c-0.058-0.151-0.095-0.318-0.111-0.499
				c-0.016-0.181-0.024-0.358-0.024-0.533c0-0.187,0.002-0.389,0.005-0.605c0.003-0.216,0.03-0.415,0.082-0.595
				c0.052-0.181,0.139-0.331,0.261-0.451c0.123-0.119,0.3-0.179,0.533-0.179c0.2,0,0.358,0.047,0.475,0.14
				c0.116,0.094,0.205,0.218,0.266,0.373c0.061,0.155,0.102,0.336,0.121,0.542c0.019,0.207,0.029,0.427,0.029,0.659
				C32.574,27.443,32.565,27.655,32.545,27.856z"/>
			<path style="fill:#FFFFFF;" d="M36.785,25.066c-0.151-0.11-0.326-0.189-0.526-0.237c-0.199-0.049-0.411-0.072-0.637-0.072
				c-0.328,0-0.626,0.07-0.894,0.21c-0.268,0.14-0.466,0.341-0.595,0.603c0.103,0.065,0.205,0.128,0.305,0.189
				c0.1,0.061,0.202,0.121,0.305,0.179c0.071-0.168,0.189-0.286,0.354-0.354c0.164-0.068,0.341-0.102,0.528-0.102
				c0.284,0,0.499,0.062,0.644,0.186c0.145,0.123,0.218,0.296,0.218,0.517v0.595h-0.881c-0.581,0-1.004,0.14-1.269,0.421
				c-0.265,0.281-0.397,0.634-0.397,1.061c0,0.188,0.027,0.367,0.082,0.538c0.055,0.171,0.139,0.322,0.252,0.45
				c0.113,0.129,0.257,0.231,0.431,0.305c0.175,0.074,0.378,0.112,0.611,0.112c0.252,0,0.476-0.035,0.673-0.106
				c0.197-0.071,0.35-0.178,0.46-0.32l0.039,0.02v0.349h0.785v-3.41c0-0.278-0.043-0.508-0.13-0.693
				C37.056,25.323,36.937,25.175,36.785,25.066z M36.488,28.112c0,0.305-0.089,0.52-0.266,0.643
				c-0.177,0.124-0.402,0.185-0.673,0.185c-0.29,0-0.507-0.066-0.649-0.2c-0.142-0.133-0.213-0.307-0.213-0.522
				c0-0.273,0.081-0.47,0.242-0.59c0.162-0.121,0.368-0.181,0.62-0.181h0.94V28.112z"/>
			<path style="fill:#FFFFFF;" d="M41.321,25.676c-0.123-0.233-0.288-0.413-0.496-0.542c-0.207-0.129-0.48-0.194-0.817-0.194
				c-0.169,0-0.352,0.039-0.549,0.117c-0.198,0.077-0.371,0.207-0.52,0.387c0,0-0.007-0.009-0.02-0.009
				c0.026-0.426,0.128-0.773,0.305-1.041c0.177-0.268,0.463-0.496,0.857-0.683c0.11-0.052,0.21-0.095,0.3-0.131
				c0.091-0.035,0.184-0.072,0.281-0.112c0.097-0.039,0.203-0.084,0.32-0.135c0.116-0.051,0.255-0.116,0.417-0.193l-0.262-0.572
				c-0.329,0.129-0.605,0.234-0.828,0.315c-0.223,0.081-0.441,0.17-0.654,0.266c-0.239,0.103-0.445,0.228-0.62,0.373
				c-0.174,0.145-0.32,0.323-0.436,0.533c-0.116,0.21-0.208,0.456-0.276,0.741c-0.068,0.284-0.115,0.62-0.14,1.007
				c-0.007,0.026-0.013,0.082-0.02,0.169c-0.006,0.087-0.011,0.191-0.014,0.31c-0.004,0.12-0.008,0.245-0.015,0.378
				c-0.007,0.132-0.01,0.251-0.01,0.354c-0.006,0.465,0.011,0.844,0.054,1.138c0.042,0.294,0.105,0.527,0.19,0.702
				c0.116,0.239,0.293,0.435,0.529,0.59c0.237,0.155,0.539,0.233,0.909,0.233c0.162,0,0.325-0.018,0.49-0.054
				c0.165-0.035,0.319-0.095,0.462-0.179c0.142-0.084,0.272-0.194,0.389-0.33c0.117-0.136,0.207-0.307,0.272-0.513
				c0.065-0.187,0.107-0.371,0.126-0.552c0.019-0.181,0.029-0.397,0.029-0.65c0-0.329-0.016-0.65-0.048-0.963
				C41.493,26.123,41.425,25.87,41.321,25.676z M40.775,27.912c-0.01,0.171-0.031,0.301-0.063,0.392
				c-0.071,0.212-0.181,0.373-0.33,0.482c-0.149,0.11-0.323,0.164-0.523,0.164c-0.226,0-0.405-0.047-0.538-0.14
				c-0.132-0.094-0.234-0.227-0.305-0.401c-0.052-0.129-0.082-0.274-0.092-0.435c-0.01-0.161-0.015-0.348-0.015-0.561
				c0-0.283,0.011-0.535,0.034-0.758c0.022-0.222,0.069-0.404,0.14-0.546c0.149-0.309,0.41-0.464,0.785-0.464
				c0.233,0,0.41,0.052,0.533,0.155c0.123,0.103,0.219,0.245,0.291,0.425c0.013,0.052,0.026,0.117,0.039,0.199
				c0.013,0.08,0.024,0.172,0.034,0.275c0.01,0.103,0.016,0.207,0.019,0.314c0.003,0.106,0.005,0.207,0.005,0.304
				C40.789,27.543,40.784,27.741,40.775,27.912z"/>
			<path style="fill:#FFFFFF;" d="M45.73,26.272c-0.019-0.152-0.045-0.291-0.078-0.417c-0.032-0.125-0.071-0.227-0.116-0.305
				c-0.129-0.225-0.304-0.415-0.523-0.567c-0.22-0.151-0.52-0.227-0.901-0.227c-0.387,0-0.714,0.084-0.978,0.252
				c-0.265,0.168-0.462,0.397-0.591,0.688c-0.071,0.174-0.121,0.4-0.15,0.678c-0.029,0.278-0.044,0.569-0.044,0.872
				c0,0.316,0.016,0.618,0.049,0.906c0.032,0.287,0.09,0.518,0.174,0.692c0.116,0.246,0.292,0.445,0.528,0.601
				c0.236,0.155,0.538,0.233,0.906,0.233c0.174,0,0.344-0.018,0.508-0.054c0.165-0.035,0.32-0.091,0.465-0.169
				c0.145-0.077,0.275-0.181,0.388-0.31c0.113-0.129,0.199-0.287,0.257-0.475c0.026-0.077,0.049-0.181,0.068-0.31
				c0.019-0.129,0.037-0.265,0.053-0.407c0.016-0.142,0.027-0.277,0.034-0.407c0.006-0.129,0.01-0.239,0.01-0.33
				c0-0.148-0.005-0.305-0.015-0.47C45.764,26.582,45.749,26.423,45.73,26.272z M44.984,27.882
				c-0.013,0.216-0.035,0.369-0.067,0.459c-0.071,0.213-0.182,0.367-0.333,0.464c-0.151,0.096-0.326,0.144-0.525,0.144
				c-0.206,0-0.376-0.048-0.511-0.144c-0.135-0.097-0.238-0.232-0.309-0.406c-0.051-0.128-0.082-0.287-0.091-0.473
				c-0.009-0.187-0.014-0.387-0.014-0.599c0-0.303,0.011-0.568,0.033-0.797c0.023-0.229,0.056-0.404,0.101-0.527
				c0.071-0.181,0.18-0.315,0.328-0.406c0.148-0.09,0.315-0.135,0.501-0.135c0.186,0,0.35,0.048,0.491,0.145
				c0.141,0.096,0.248,0.241,0.318,0.435c0.039,0.116,0.064,0.275,0.077,0.479c0.013,0.202,0.019,0.417,0.019,0.642
				C45.003,27.428,44.996,27.667,44.984,27.882z"/>
			<polygon style="fill:#FFFFFF;" points="46.253,25.502 47.502,25.502 47.502,29.609 48.287,29.609 48.287,25.502 49.556,25.502 
				49.556,24.824 46.253,24.824 			"/>
			<path style="fill:#FFFFFF;" d="M52.498,25.066c-0.151-0.11-0.326-0.189-0.526-0.237c-0.199-0.049-0.411-0.072-0.637-0.072
				c-0.328,0-0.626,0.07-0.894,0.21c-0.268,0.14-0.466,0.341-0.595,0.603c0.103,0.065,0.205,0.128,0.305,0.189
				c0.1,0.061,0.202,0.121,0.305,0.179c0.071-0.168,0.189-0.286,0.354-0.354c0.164-0.068,0.341-0.102,0.528-0.102
				c0.284,0,0.499,0.062,0.644,0.186c0.145,0.123,0.218,0.296,0.218,0.517v0.595h-0.881c-0.581,0-1.004,0.14-1.269,0.421
				c-0.265,0.281-0.397,0.634-0.397,1.061c0,0.188,0.027,0.367,0.082,0.538c0.055,0.171,0.139,0.322,0.252,0.45
				c0.113,0.129,0.257,0.231,0.431,0.305c0.175,0.074,0.378,0.112,0.611,0.112c0.252,0,0.476-0.035,0.673-0.106
				c0.197-0.071,0.35-0.178,0.46-0.32l0.039,0.02v0.349h0.785v-3.41c0-0.278-0.043-0.508-0.13-0.693
				C52.768,25.323,52.649,25.175,52.498,25.066z M52.2,28.112c0,0.305-0.089,0.52-0.266,0.643c-0.177,0.124-0.402,0.185-0.673,0.185
				c-0.29,0-0.507-0.066-0.649-0.2c-0.142-0.133-0.213-0.307-0.213-0.522c0-0.273,0.081-0.47,0.242-0.59
				c0.162-0.121,0.368-0.181,0.62-0.181h0.94V28.112z"/>
			<polygon style="fill:#FFFFFF;" points="56.463,26.848 54.719,26.848 54.719,24.813 53.934,24.813 53.934,29.609 54.719,29.609 
				54.719,27.497 56.463,27.497 56.463,29.609 57.247,29.609 57.247,24.813 56.463,24.813 			"/>
			<path style="fill:#FFFFFF;" d="M61.573,26.746c-0.01-0.165-0.024-0.323-0.044-0.474c-0.019-0.152-0.045-0.291-0.078-0.417
				c-0.032-0.125-0.071-0.227-0.116-0.305c-0.129-0.225-0.304-0.415-0.523-0.567c-0.22-0.151-0.52-0.227-0.901-0.227
				c-0.388,0-0.714,0.084-0.978,0.252c-0.265,0.168-0.462,0.397-0.591,0.688c-0.071,0.174-0.121,0.4-0.15,0.678
				c-0.029,0.278-0.044,0.569-0.044,0.872c0,0.316,0.016,0.618,0.048,0.906c0.032,0.287,0.09,0.518,0.174,0.692
				c0.116,0.246,0.292,0.445,0.528,0.601c0.236,0.155,0.538,0.233,0.906,0.233c0.174,0,0.344-0.018,0.508-0.054
				c0.165-0.035,0.32-0.091,0.465-0.169c0.145-0.077,0.275-0.181,0.387-0.31c0.113-0.129,0.199-0.287,0.257-0.475
				c0.026-0.077,0.048-0.181,0.068-0.31c0.019-0.129,0.037-0.265,0.053-0.407c0.016-0.142,0.027-0.277,0.034-0.407
				c0.006-0.129,0.01-0.239,0.01-0.33C61.587,27.068,61.582,26.911,61.573,26.746z M60.783,27.882
				c-0.013,0.216-0.036,0.369-0.067,0.459c-0.071,0.213-0.182,0.367-0.333,0.464c-0.151,0.096-0.326,0.144-0.525,0.144
				c-0.206,0-0.376-0.048-0.511-0.144c-0.135-0.097-0.238-0.232-0.309-0.406c-0.051-0.128-0.082-0.287-0.091-0.473
				c-0.009-0.187-0.014-0.387-0.014-0.599c0-0.303,0.011-0.568,0.034-0.797c0.022-0.229,0.056-0.404,0.101-0.527
				c0.071-0.181,0.18-0.315,0.328-0.406c0.148-0.09,0.315-0.135,0.501-0.135c0.186,0,0.35,0.048,0.491,0.145
				c0.142,0.096,0.248,0.241,0.318,0.435c0.039,0.116,0.064,0.275,0.077,0.479c0.013,0.202,0.019,0.417,0.019,0.642
				C60.802,27.428,60.796,27.667,60.783,27.882z"/>
		</g>
		<g>
			<g>
				<path style="fill:#FFFFFF;" d="M18.953,40.998c-0.29-0.25-0.61-0.417-0.96-0.501c-0.351-0.083-0.895-0.125-1.633-0.125h-4.227
					v0.18h0.049c0.299,0.021,0.542,0.082,0.729,0.184c0.187,0.102,0.341,0.257,0.463,0.466c0.084,0.151,0.144,0.348,0.179,0.591
					c0.035,0.242,0.053,0.588,0.053,1.036v5.766c0,0.537-0.026,0.934-0.077,1.189c-0.051,0.256-0.152,0.467-0.301,0.634
					c-0.126,0.146-0.272,0.254-0.438,0.325c-0.166,0.07-0.384,0.113-0.655,0.129v0.18h4.479v-0.18
					c-0.271-0.016-0.49-0.059-0.655-0.129c-0.166-0.071-0.312-0.179-0.438-0.325c-0.145-0.167-0.244-0.379-0.298-0.637
					c-0.054-0.258-0.081-0.653-0.081-1.185v-2.808h1.374c0.607,0,0.991-0.008,1.15-0.023c0.5-0.047,0.925-0.185,1.276-0.415
					c0.673-0.443,1.009-1.142,1.009-2.097C19.948,42.312,19.617,41.561,18.953,40.998z M17.565,45.003
					c-0.196,0.203-0.42,0.343-0.669,0.418c-0.25,0.076-0.606,0.113-1.069,0.113H15.14v-4.921h0.589c0.383,0,0.628,0.005,0.736,0.016
					c0.393,0.047,0.731,0.203,1.016,0.469c0.248,0.224,0.438,0.515,0.571,0.872c0.133,0.357,0.2,0.75,0.2,1.177
					C18.252,43.921,18.023,44.539,17.565,45.003z"/>
				<path style="fill:#FFFFFF;" d="M29.892,50.745c-0.11-0.063-0.224-0.175-0.341-0.336c-0.145-0.198-0.324-0.517-0.537-0.958
					c-0.213-0.441-0.528-1.138-0.945-2.093c-0.178-0.417-0.311-0.708-0.4-0.872c-0.089-0.164-0.187-0.301-0.295-0.411
					c-0.136-0.141-0.344-0.276-0.625-0.407c0.342-0.083,0.614-0.172,0.818-0.266c0.204-0.094,0.39-0.214,0.558-0.36
					c0.552-0.49,0.829-1.142,0.829-1.956c0-0.548-0.128-1.029-0.383-1.443c-0.255-0.415-0.614-0.726-1.078-0.935
					c-0.412-0.182-0.981-0.292-1.706-0.329c-0.178-0.005-0.55-0.008-1.117-0.008h-3.385v0.18c0.267,0.016,0.485,0.057,0.653,0.125
					c0.169,0.068,0.316,0.177,0.442,0.329c0.15,0.167,0.25,0.378,0.302,0.634c0.051,0.256,0.077,0.652,0.077,1.189v5.765
					c0,0.537-0.026,0.934-0.077,1.189c-0.052,0.256-0.152,0.467-0.302,0.634c-0.126,0.146-0.273,0.254-0.439,0.325
					c-0.166,0.07-0.385,0.113-0.657,0.129v0.18h4.487v-0.18c-0.272-0.016-0.49-0.059-0.657-0.129
					c-0.166-0.07-0.312-0.179-0.439-0.325c-0.145-0.167-0.245-0.379-0.298-0.637c-0.054-0.258-0.081-0.653-0.081-1.185v-2.769h0.344
					c0.211,0,0.389,0.022,0.534,0.066c0.145,0.044,0.281,0.119,0.407,0.223c0.248,0.209,0.522,0.597,0.822,1.166
					c0.3,0.574,0.597,1.233,0.892,1.979l0.492,1.244c0.033,0.078,0.108,0.261,0.225,0.548h2.331v-0.18
					C30.153,50.849,30.002,50.808,29.892,50.745z M25.812,45.543c-0.25,0.073-0.666,0.109-1.246,0.109h-0.267v-5.038h0.288
					c0.501,0,0.887,0.035,1.159,0.106c0.271,0.07,0.506,0.194,0.702,0.372c0.253,0.235,0.45,0.533,0.593,0.896
					c0.143,0.363,0.214,0.75,0.214,1.162c0,0.772-0.246,1.419-0.737,1.94C26.298,45.319,26.063,45.47,25.812,45.543z"/>
				<g>
					<g>
						<path style="fill:#FFFFFF;" d="M35.659,40.372v0.18c-0.268,0.016-0.486,0.057-0.653,0.125
							c-0.167,0.068-0.317,0.177-0.448,0.329c-0.183,0.209-0.296,0.498-0.339,0.868c-0.028,0.277-0.042,0.595-0.042,0.954v5.766
							c0,0.433,0.019,0.774,0.057,1.025c0.038,0.25,0.099,0.451,0.183,0.602c0.122,0.209,0.28,0.364,0.473,0.465
							c0.193,0.102,0.449,0.163,0.769,0.184v0.18h-4.511v-0.18c0.273-0.016,0.493-0.059,0.66-0.129
							c0.167-0.07,0.314-0.179,0.441-0.325c0.151-0.167,0.252-0.378,0.304-0.634c0.052-0.255,0.078-0.652,0.078-1.189v-5.766
							c0-0.537-0.026-0.934-0.078-1.189c-0.052-0.255-0.153-0.467-0.304-0.634c-0.127-0.151-0.275-0.261-0.445-0.329
							c-0.169-0.068-0.388-0.11-0.656-0.125v-0.18H35.659z"/>
					</g>
				</g>
				<g>
					<g>
						<path style="fill:#FFFFFF;" d="M48.654,40.552c-0.268,0.016-0.484,0.056-0.646,0.121c-0.162,0.065-0.312,0.174-0.448,0.325
							c-0.104,0.109-0.181,0.231-0.233,0.364c-0.052,0.133-0.087,0.301-0.106,0.505c-0.033,0.271-0.049,0.592-0.049,0.962v5.766
							c0,0.537,0.028,0.936,0.085,1.197c0.056,0.261,0.158,0.469,0.304,0.626c0.259,0.276,0.624,0.428,1.094,0.454v0.18h-4.511
							v-0.18c0.273-0.016,0.493-0.059,0.66-0.129c0.167-0.07,0.316-0.178,0.448-0.325c0.146-0.167,0.246-0.379,0.3-0.638
							c0.054-0.258,0.081-0.653,0.081-1.185V41.6l-3.636,9.45h-0.148l-3.615-9.309v6.853c0,0.537,0.027,0.934,0.081,1.189
							c0.054,0.256,0.154,0.467,0.3,0.634c0.132,0.151,0.281,0.261,0.448,0.329c0.167,0.068,0.385,0.109,0.653,0.125v0.18h-3.255
							v-0.18c0.268-0.016,0.486-0.057,0.653-0.125c0.167-0.068,0.316-0.177,0.448-0.329c0.146-0.167,0.246-0.379,0.3-0.638
							c0.054-0.258,0.081-0.653,0.081-1.185v-5.766c0-0.24-0.007-0.467-0.021-0.681c-0.024-0.386-0.078-0.668-0.162-0.845
							c-0.118-0.245-0.279-0.426-0.484-0.544c-0.205-0.117-0.477-0.186-0.815-0.207v-0.18h3.064l3.057,8.363l3.17-8.363h2.902
							V40.552z"/>
					</g>
				</g>
				<path style="fill:#FFFFFF;" d="M57.044,49.548c-0.145,0.287-0.355,0.54-0.631,0.759c-0.227,0.182-0.495,0.312-0.804,0.387
					c-0.309,0.076-0.72,0.113-1.232,0.113c-0.626,0-1.251,0-1.877,0c0-1.752,0-3.505,0-5.257h0.405c0.351,0,0.64,0.039,0.867,0.117
					c0.227,0.078,0.412,0.201,0.554,0.368c0.147,0.172,0.262,0.381,0.345,0.626c0.083,0.245,0.146,0.569,0.188,0.97h0.163
					l0.028-4.193l-0.163-0.008c-0.043,0.402-0.096,0.705-0.16,0.911c-0.064,0.206-0.162,0.385-0.295,0.536
					c-0.137,0.162-0.315,0.274-0.533,0.336c-0.218,0.063-0.543,0.094-0.974,0.094H52.5v-4.694c0.626,0,1.251,0,1.877,0
					c0.512,0,0.923,0.038,1.232,0.113c0.309,0.076,0.577,0.205,0.804,0.387c0.275,0.219,0.486,0.472,0.631,0.759
					c0.145,0.287,0.249,0.649,0.312,1.087l0.167-0.008l-0.123-2.582c-2.649,0-5.299,0-7.948,0v0.18
					c0.275,0.016,0.496,0.057,0.665,0.125c0.168,0.068,0.316,0.177,0.444,0.329c0.147,0.167,0.248,0.379,0.302,0.638
					c0.054,0.258,0.082,0.653,0.082,1.185c0,1.922,0,3.844,0,5.766c0,0.532-0.027,0.927-0.082,1.185
					c-0.054,0.258-0.155,0.471-0.302,0.638c-0.128,0.151-0.276,0.261-0.444,0.329c-0.168,0.068-0.39,0.11-0.665,0.125v0.18
					c2.649,0,5.299,0,7.948,0l0.123-2.582l-0.167-0.008C57.293,48.899,57.189,49.261,57.044,49.548z"/>
			</g>
			<g>
				<path style="fill:#EF7B7D;" d="M49.244,50.433c0.021,0.141,0.005,0.255-0.051,0.341c-0.056,0.086-0.117,0.122-0.184,0.106
					c-0.059-0.047-0.17-0.109-0.332-0.188c-0.233-0.109-0.453-0.172-0.661-0.188c-0.905-0.047-2.162,0.948-3.769,2.984
					c-0.681,0.862-1.381,1.974-2.102,3.336c-0.125,0-0.245-0.126-0.358-0.376c-0.093-0.235-0.125-0.415-0.096-0.54
					c0.286-1.112,0.95-2.42,1.994-3.924c0.602-0.861,1.149-1.488,1.641-1.88c0.337-0.266,0.85-0.399,1.539-0.399
					c-0.945,0.752-1.786,1.747-2.524,2.984l0.095,0.094c1.915-2.177,3.275-3.195,4.08-3.054
					C48.929,49.807,49.172,50.042,49.244,50.433z"/>
				<path style="fill:#EF7B7D;" d="M55.661,53.253c-0.091-0.109-0.184-0.102-0.276,0.023c-0.744,0.862-1.319,1.496-1.729,1.903
					c-0.981,0.971-1.631,1.386-1.95,1.245c-0.087-0.031-0.142-0.094-0.167-0.188c-0.062-0.235,0.132-0.744,0.583-1.527
					c0.748-1.316,1.918-2.905,3.509-4.769c-0.353-0.031-0.65,0-0.892,0.094c-0.3,0.11-0.835,0.572-1.607,1.386
					c0.361-0.47,0.499-0.869,0.412-1.198c-0.091-0.345-0.387-0.517-0.888-0.517c-0.674,0-1.474,0.305-2.401,0.916
					c-0.928,0.611-1.683,1.324-2.266,2.138c-0.89,1.253-1.212,2.349-0.963,3.289c0.137,0.517,0.471,0.775,1.004,0.775
					c0.673,0,1.625-0.666,2.855-1.997c-0.189,0.47-0.238,0.877-0.147,1.222c0.137,0.517,0.487,0.775,1.051,0.775
					c0.517,0,1.231-0.47,2.141-1.41c0.529-0.548,1.093-1.167,1.695-1.856C55.72,53.449,55.733,53.347,55.661,53.253z M49.489,55.637
					c-0.729,0.65-1.215,0.928-1.46,0.834c-0.106-0.047-0.174-0.125-0.203-0.235c-0.149-0.564,0.315-1.535,1.392-2.913
					c1.695-2.177,2.92-3.266,3.671-3.266c0.188,0,0.305,0.086,0.35,0.259c0.079,0.298-0.452,1.253-1.592,2.866
					C50.937,54.169,50.218,54.988,49.489,55.637z"/>
				<path style="fill:#EF7B7D;" d="M67.338,53.322c0.098,0.077,0.082,0.193-0.047,0.348c-0.86,0.959-1.542,1.654-2.046,2.087
					c-0.882,0.758-1.618,1.074-2.207,0.951c-0.396-0.093-0.655-0.371-0.777-0.835c-0.102-0.386-0.058-0.804,0.133-1.252
					c0.232-0.525,0.711-1.229,1.436-2.11c0.369-0.417,0.738-0.835,1.107-1.252c0.471-0.556,0.684-0.92,0.639-1.09
					c-0.012-0.046-0.043-0.077-0.094-0.093c-0.291-0.108-1.004,0.252-2.138,1.078c-1.135,0.827-1.995,1.62-2.583,2.377
					c-0.672,0.85-1.363,1.948-2.075,3.293c-0.139,0-0.255-0.116-0.347-0.348c-0.103-0.216-0.137-0.402-0.1-0.556
					c0.274-1.067,0.931-2.357,1.968-3.873c0.595-0.85,1.141-1.476,1.637-1.878c0.306-0.247,0.806-0.371,1.502-0.371
					c-0.783,0.665-1.592,1.67-2.426,3.014c0.655-0.68,1.395-1.329,2.221-1.948c1.063-0.773,1.85-1.16,2.36-1.16
					c0.495,0,0.797,0.209,0.908,0.626c0.155,0.588-0.317,1.523-1.415,2.806c-0.426,0.495-0.885,1.098-1.377,1.809
					c-0.401,0.588-0.573,0.99-0.516,1.206c0.041,0.155,0.139,0.232,0.293,0.232c0.417,0,0.983-0.317,1.697-0.951
					c0.483-0.51,1.144-1.198,1.982-2.064C67.167,53.261,67.256,53.245,67.338,53.322z"/>
				<g>
					<path style="fill:#EF7B7D;" d="M59.458,49.712c-1.686,1.989-2.906,3.636-3.659,4.94c-0.434,0.764-0.614,1.289-0.538,1.575
						c0.042,0.159,0.151,0.239,0.326,0.239c0.43,0,1.047-0.374,1.852-1.122c0.702-0.652,1.357-1.336,1.964-2.053
						c0.129-0.111,0.235-0.135,0.315-0.072c0.1,0.08,0.092,0.167-0.026,0.263c-0.468,0.637-1.124,1.345-1.969,2.124
						c-0.883,0.811-1.628,1.217-2.232,1.217c-0.605,0-0.972-0.246-1.102-0.74c-0.202-0.764,0.124-1.758,0.978-2.983
						c1.103-1.607,2.05-2.657,2.843-3.15C58.524,49.759,58.94,49.68,59.458,49.712z"/>
					<circle style="fill:#EF7B7D;" cx="60.145" cy="47.689" r="0.586"/>
				</g>
				<path style="fill:#EF7B7D;" d="M43.086,50.176c-0.155,0.126-0.511,0.566-1.066,1.32l-0.083-0.047
					c0.311-0.487,0.423-0.896,0.336-1.226c-0.054-0.204-0.157-0.342-0.31-0.413c-0.152-0.071-0.331-0.106-0.535-0.106
					c-0.676,0-1.499,0.303-2.471,0.907c-0.972,0.605-1.75,1.317-2.336,2.133c-0.87,1.226-1.179,2.318-0.926,3.277
					c0.141,0.534,0.486,0.8,1.034,0.801h0.004c0.77-0.002,1.959-0.999,3.568-2.994l0.059,0.047c-0.25,0.379-0.608,0.921-1.044,1.57
					c-1.698,2.527-1.955,2.791-2.149,2.973c-0.565,0.532-1.925,1.811-3.473,1.517c-0.621-0.118-1.075-0.452-1.342-0.691
					c-0.057-0.077-0.144-0.086-0.177-0.055c-0.026,0.025-0.026,0.083,0.004,0.137c0.162,0.208,0.42,0.486,0.801,0.702
					c1.64,0.932,3.819-0.265,4.222-0.487c1.38-0.758,2.374-2.358,4.304-5.527c0.441-0.723,1.303-2.139,2.482-4.078
					C43.62,49.909,43.319,49.988,43.086,50.176z M40.294,53.17c-0.697,0.99-1.411,1.811-2.142,2.463
					c-0.731,0.652-1.227,0.931-1.488,0.837c-0.122-0.047-0.2-0.133-0.234-0.259c-0.141-0.534,0.334-1.501,1.426-2.899
					c1.717-2.184,2.945-3.277,3.684-3.277c0.204,0,0.327,0.079,0.369,0.236C41.987,50.569,41.449,51.536,40.294,53.17z"/>
			</g>
		</g>
	</g>
</g>
</svg>
