<svg xmlns="http://www.w3.org/2000/svg" width="77" height="77" viewBox="0 0 77 77"><style type="text/css">.st0{fill:#0B9CCE;}</style><path class="st0" d="M38.5 77c-21.2 0-38.5-17.3-38.5-38.5s17.3-38.5 38.5-38.5 38.5 17.3 38.5 38.5-17.3 38.5-38.5 38.5zm0-75c-20.1 0-36.5 16.4-36.5 36.5s16.4 36.5 36.5 36.5 36.5-16.4 36.5-36.5-16.4-36.5-36.5-36.5zM8.1 37.5h5.6v2h-5.6zM63.3 37.5h5.6v2h-5.6zM37.5 63.3h2v5.6h-2zM37.5 8.1h2v5.6h-2zM38.3 39.5c-.5 0-1-.4-1-1v-17.4c0-.5.4-1 1-1s1 .4 1 1v17.4c0 .5-.5 1-1 1zM44.9 46.2c-.3 0-.5-.1-.7-.3l-6.7-6.7c-.4-.4-.4-1 0-1.4.4-.4 1-.4 1.4 0l6.7 6.7c.4.4.4 1 0 1.4-.2.2-.4.3-.7.3z"/></svg>