<svg xmlns="http://www.w3.org/2000/svg" width="68.8" height="59" viewBox="0 0 68.8 59"><style type="text/css">.st0{fill:#0B9CCE;}</style><path class="st0" d="M64.7 45.9v-36.4h-5.5v15.6h-2.1v-2.8c0-.2-.1-.4-.1-.5l-5.8-16.5c-1.2-3.2-4.2-5.3-7.6-5.3h-10.6c-3.5 0-6.5 2.2-7.6 5.4l-5.7 16.2c-.2.3-.2.6-.2.8v2.8h-2.1v-15.7h-10.6c-.5 0-1.1.2-1.4.6l-4.8 4.8c-.4.4-.6.9-.6 1.5v13.1c0 3.1 2.5 5.6 5.6 5.6h6.3v10.8c-2.4 1-4.1 3.4-4.1 6.3 0 3.8 3 6.8 6.8 6.8s6.8-3 6.8-6.8c0-2.9-1.7-5.2-4.1-6.3v-19.1h2.1v2.7c0 .4.2.8.4 1.1l8.4 13.8c1 1.7 2.8 2.7 4.8 2.7h10.3c1.9 0 3.7-1 5-2.6l8.7-14.2v-.2c0-.1.1-.4.1-.6v-2.7h2.1v19.1c-2.4 1-4.1 3.4-4.1 6.3 0 3.8 3 6.8 6.8 6.8s6.8-3 6.8-6.8c.1-2.9-1.6-5.3-4-6.3zm-59.1-12.5c-2.2 0-3.9-1.8-3.9-3.9v-13.1c0-.1 0-.1.1-.2l4.8-4.8c.1-.1.2-.1.2-.1h5.1v22.1h-6.3zm14.2 18.8c0 2.9-2.2 5.1-5.1 5.1s-5.1-2.3-5.1-5.1c0-2.9 2.2-5.1 5.1-5.1s5.1 2.2 5.1 5.1zm-5.1-6.9c-.3 0-.7 0-1 .1v-34.2h2v34.2c-.4 0-.7-.1-1-.1zm12.3-39.4c.8-2.5 3.2-4.2 6-4.2h10.6c2.6 0 5 1.7 6 4.2l5.4 15.6h-33.5l5.5-15.6zm-5.8 22.7v-5.4h34.2v5.4h-34.2zm25.8 14.9c-.9 1.2-2.2 1.9-3.6 1.9h-10.3c-1.4 0-2.6-.7-3.3-1.8l-8-13.1h33.2l-8 13zm13.9-32.3h2v34.2l-1-.1s-.7 0-1 .1v-34.2zm1 46.1c-2.9 0-5.1-2.2-5.1-5.1 0-2.9 2.2-5.1 5.1-5.1 2.9 0 5.1 2.2 5.1 5.1s-2.2 5.1-5.1 5.1z"/></svg>