<svg xmlns="http://www.w3.org/2000/svg" width="25" height="25" viewBox="0 0 25 25"><style type="text/css">.st0{fill:#FFFFFF;}</style><path class="st0" d="M12.5 25c-.8 0-1.6-.5-2.2-1.4l-9.8-9.7v-.1c-.6-.9-.6-1.8-.2-2.5.4-.7 1.3-1.2 2.5-1.2h4.1v-7.8c-.1-1.3.9-2.3 2.2-2.3h6.8c1.3 0 2.3 1 2.3 2.3v7.9h4.1c1.1 0 2 .4 2.5 1.2.4.7.3 1.6-.2 2.5v.1l-9.8 9.7c-.7.8-1.5 1.3-2.3 1.3zm-11-11.8l9.8 9.7v.1c.3.5.7.8 1.1.8.4 0 .8-.3 1.1-.8v-.1l.1-.1 9.8-9.7c.3-.5.3-.9.2-1.2-.2-.3-.7-.5-1.4-.5h-5.2v-9.1c0-.6-.5-1.1-1.1-1.1h-6.8c-.6 0-1.1.5-1.1 1.1v9.1h-5.3c-.7 0-1.2.2-1.4.5-.1.4 0 .8.2 1.3z"/></svg>