<svg xmlns="http://www.w3.org/2000/svg" width="28.8" height="25" viewBox="0 0 28.8 25"><style type="text/css">.st0{fill:#FFFFFF;}</style><path class="st0" d="M28.3.3c-.3-.3-.8-.4-1.3-.2l-25.8 10.5c-.8.4-1.2 1.1-1.2 1.9.1.8.6 1.5 1.4 1.8l9.7 2.9.3 6.5c0 .5.4 1 .9 1.2.1.1.3.1.4.1.4 0 .7-.2 1-.4l3.2-3.5 4.6 3.2c.3.2.7.4 1.1.4.9 0 1.7-.7 1.9-1.6l4.2-21.4c.2-.6 0-1.1-.4-1.4zm-26.5 12.8c-.3-.1-.5-.3-.5-.6s.2-.6.4-.7l24.2-9.9-14.4 14.2-9.7-3zm11 10.6h-.1l-.3-5.7 3.5 2.3-3.1 3.4zm10.6-1c-.1.3-.4.6-.7.6-.1 0-.3 0-.4-.1l-5.5-3.8-4.1-2.7 14.7-14.5-4 20.5z"/></svg>