<svg xmlns="http://www.w3.org/2000/svg" width="25" height="25" viewBox="0 0 25 25"><style type="text/css">.st0{fill:#FFFFFF;}</style><path class="st0" d="M18.9 25c-.4 0-.9-.1-1.6-.2-.8-.1-1.7-.4-2.8-.8-1.1-.4-2.3-1.1-3.6-2-1.3-.9-2.8-2.1-4.3-3.6-1.2-1.2-2.2-2.3-3-3.4-.8-1.1-1.4-2.1-1.9-3-.5-.9-.9-1.8-1.1-2.5-.2-.8-.4-1.5-.5-2-.1-.6-.1-1-.1-1.4v-.5c0-.3.1-.6.3-.9.1-.3.3-.6.6-.8l3.3-3.3c.4-.4.8-.6 1.3-.6.4 0 .7.1 1 .3.1.2.3.4.5.6l2.7 5.1c.2.5.3.9.2 1.4-.1.4-.3.8-.6 1.1l-1.2 1.2c.1.3.2.6.4.9.2.4.5.8.9 1.4.4.5 1 1.2 1.7 1.9s1.4 1.3 1.9 1.7c.6.4 1 .7 1.4.9.4.2.7.3.7.3h.2l1.4-1.4c.4-.4.9-.6 1.5-.6.3 0 .6.1.8.2l5 3c.5.3.8.7.9 1.2.1.6-.1 1.1-.5 1.5l-3.3 3.3c-.2.2-.5.4-.8.6l-.9.3h-.1c-.1.1-.3.1-.4.1zm.5 0zm-18.1-19.3v.5c0 .3 0 .6.1 1.1.1.5.2 1.1.5 1.8.2.7.6 1.5 1 2.3.5.9 1.1 1.8 1.8 2.9.7 1 1.7 2.1 2.9 3.2 1.4 1.5 2.8 2.6 4.1 3.4 1.3.8 2.4 1.5 3.4 1.9 1 .4 1.8.7 2.5.8.8.1 1.3.2 1.5.2h.5c.2 0 .3-.1.5-.2s.3-.2.4-.3l3.3-3.3c.1-.1.2-.3.2-.5 0-.1-.1-.2-.3-.4l-4.7-2.8-.1-.1s-.1-.1-.4-.1c-.2 0-.4.1-.6.2l-1.4 1.4c-.1.1-.2.2-.4.2l-.4.1h-.1l-.4-.1c-.3-.1-.6-.2-1.1-.4-.4-.2-.9-.5-1.6-1-.6-.4-1.3-1.1-2.1-1.9-.8-.8-1.4-1.5-1.9-2.1-.4-.6-.8-1.1-1-1.6-.3-.5-.4-1-.5-1.4v-.1.3c0-.1 0-.2.1-.4-.1-.2 0-.3.1-.4l1.2-1.2c.1-.1.2-.3.3-.5 0-.2 0-.3-.1-.4l-2.7-5.2c0-.1-.1-.2-.2-.3l-.2-.1c-.1 0-.2 0-.4.2l-3.4 3.4c-.1.1-.2.2-.2.4-.1.2-.2.3-.2.5zm14 11.2z"/></svg>