<svg xmlns="http://www.w3.org/2000/svg" width="63.9" height="59" viewBox="0 0 63.9 59"><style type="text/css">.st0{fill:#0B9CCE;}</style><path class="st0" d="M63.9 0h-54.599999999999994l.1.8-.5-.1-1.7 7.7c-.1.7-.2 1.5-.2 2.2l-.2-.1-1.9 8.4c-.2.7-.2 1.4-.2 2.2l-.3-.1-1.9 8.4c-.2.7-.2 1.4-.2 2.2l-.2-.1-1.9 8.5c-1.1 5.1 2.1 10.2 7.2 11.3.7.2 1.4.2 2.1.2 3 0 5.8-1.4 7.6-3.8.2 1.1.7 2.1 1.3 3.1 1.4 2.1 3.5 3.6 5.9 4.2.7.2 1.4.2 2.1.2 1.8 0 3.5-.5 5.1-1.5 1-.6 1.8-1.4 2.5-2.3.2 1.1.7 2.1 1.3 3.1 1.4 2.1 3.5 3.6 5.9 4.2.7.2 1.4.2 2.1.2 1.8 0 3.5-.5 5.1-1.5 2.1-1.4 3.6-3.5 4.2-5.9l1.9-8.4h-.5c.3-.6.5-1.3.7-2.1l1.9-8.4-.2-.1c.3-.6.5-1.3.7-2.1l1.9-8.4h-.3c.3-.6.5-1.3.7-2.1l1.9-8.4h-.3c.3-.6.5-1.3.7-2.1l2.2-9.4zm-37 7.3c1.1 2.8 3.6 4.9 6.7 5.6.7.2 1.4.2 2.1.2 2.4 0 4.7-.9 6.4-2.5l-1.2 5.2c-.4 2-1.7 3.8-3.4 4.9-1.8 1.1-3.8 1.5-5.9 1-2-.4-3.8-1.7-4.9-3.4-1.1-1.8-1.5-3.8-1-5.9l1.2-5.1zm-2.3 10.5c.2.5.5 1 .8 1.5 1.4 2.1 3.5 3.6 5.9 4.2.7.2 1.4.2 2.1.2 1.8 0 3.5-.5 5.1-1.5.5-.3.9-.6 1.3-1l-1.2 5.2c-.4 2-1.7 3.8-3.4 4.9-1.8 1.1-3.8 1.5-5.9 1-2-.4-3.8-1.7-4.9-3.4-1.1-1.8-1.5-3.8-1-5.9l1.2-5.2zm-3.5 15.8l1.2-5.2c.2.5.5 1 .8 1.5 1.4 2.1 3.5 3.6 5.9 4.2.7.2 1.4.2 2.1.2 1.8 0 3.5-.5 5.1-1.5.5-.3.9-.6 1.3-1l-1.2 5.2c-.8 3.6-4 6.1-7.6 6.1-.6 0-1.1-.1-1.7-.2-2-.4-3.8-1.7-4.9-3.4-1.1-1.8-1.5-3.9-1-5.9zm16.8 3.7l1.2-5.2c1.1 2.8 3.6 4.9 6.7 5.6.7.2 1.4.2 2.1.2 2.4 0 4.7-.9 6.4-2.5l-1.2 5.2c-.4 2-1.7 3.8-3.4 4.9-1.8 1.1-3.8 1.5-5.9 1-2-.4-3.8-1.7-4.9-3.4-1.1-1.7-1.4-3.8-1-5.8zm9.9-1.1c-.6 0-1.1-.1-1.7-.2-4.2-.9-6.8-5.1-5.9-9.3l1.2-5.2c1.1 2.8 3.6 4.9 6.7 5.6.7.2 1.4.2 2.1.2 1.8 0 3.5-.5 5.1-1.5.5-.3.9-.6 1.3-1l-1.2 5.2c-.8 3.8-4 6.2-7.6 6.2zm6.5-11.7c-1.8 1.1-3.8 1.5-5.9 1s-3.8-1.7-4.9-3.4c-1.1-1.7-1.5-3.8-1-5.9l1.2-5.2c.2.5.5 1 .8 1.5 1.4 2.1 3.5 3.6 5.9 4.2.7.2 1.4.2 2.1.2 1.8 0 3.5-.5 5.1-1.5.5-.3.9-.6 1.3-1l-1.2 5.2c-.4 2-1.6 3.8-3.4 4.9zm-26.2-22.8h15.9l-.8 3.6c-.8 3.6-4 6.1-7.6 6.1-.6 0-1.1-.1-1.7-.2-4.2-.9-6.8-5.1-5.9-9.3l.1-.2zm-1.7 0c-1 4.1-5.1 6.7-9.2 5.8-2.9-.7-5.2-2.9-5.9-5.8h15.1zm-17.5 7.1l1.2-5.2c1.2 2.8 3.6 4.9 6.7 5.6.7.2 1.4.2 2.1.2 2.4 0 4.7-.9 6.4-2.5l-1.2 5.2c-.8 3.6-4 6.1-7.6 6.1-.6 0-1.1-.1-1.7-.2-2-.4-3.8-1.7-4.9-3.4-1.1-1.7-1.4-3.8-1-5.8zm-2.3 10.5l1.2-5.2c.2.5.5 1 .8 1.5 1.4 2.1 3.5 3.6 5.9 4.2.7.2 1.4.2 2.1.2 2.4 0 4.7-.9 6.4-2.5l-1.2 5.2c-.4 2-1.7 3.8-3.4 4.9-1.8 1.1-3.8 1.5-5.9 1-2-.4-3.8-1.7-4.9-3.4-1.1-1.8-1.5-3.9-1-5.9zm-2.4 10.5l1.2-5.2c.2.5.5 1 .8 1.5 1.4 2.1 3.5 3.6 5.9 4.2.7.2 1.4.2 2.1.2 1.8 0 3.5-.5 5.1-1.5.5-.3.9-.6 1.3-1l-1.2 5.2c-.4 2-1.7 3.8-3.4 4.9-1.8 1.1-3.8 1.5-5.9 1-4.1-.9-6.8-5.1-5.9-9.3zm5.3 20c-.6 0-1.1-.1-1.7-.2-4.2-.9-6.8-5.1-5.9-9.3l1.2-5.2c1.1 2.8 3.6 4.9 6.7 5.6.7.2 1.4.2 2.1.2 1.8 0 3.5-.5 5.1-1.5.5-.3.9-.6 1.3-1l-1.2 5.2c-.8 3.7-4.1 6.2-7.6 6.2zm21 2.5c-1.7 1.1-3.8 1.5-5.9 1-2-.4-3.8-1.7-4.9-3.4s-1.5-3.8-1-5.9l1.2-5.2c.2.5.5 1 .8 1.5 1.4 2.1 3.5 3.6 5.9 4.2.7.2 1.4.2 2.1.2 2.4 0 4.7-.9 6.4-2.5l-1.2 5.2c-.4 2.1-1.7 3.8-3.4 4.9zm16.8 3.8c-1.8 1.1-3.8 1.5-5.9 1-2-.4-3.8-1.7-4.9-3.4-1.1-1.8-1.5-3.8-1-5.9l1.2-5.2c.2.5.5 1 .8 1.5 1.4 2.1 3.5 3.6 5.9 4.2.7.2 1.4.2 2.1.2 1.8 0 3.5-.5 5.1-1.5.5-.3.9-.6 1.3-1l-1.2 5.2c-.4 2-1.6 3.7-3.4 4.9zm12.8-47c-.4 2-1.7 3.8-3.4 4.9-1.8 1.1-3.8 1.5-5.9 1s-3.8-1.7-4.9-3.4c-1.1-1.8-1.5-3.8-1-5.9l.9-4h15.9l-1.6 7.4z"/></svg>