<svg xmlns="http://www.w3.org/2000/svg" width="59" height="59" viewBox="0 0 59 59"><style type="text/css">.st0{fill:#0B9CCE;}</style><path class="st0" d="M34.3 59c-.5 0-1.1-.2-1.8-.8l-6.7-6c-.4-.4-.9-.5-1.3-.4-.4.1-.8.4-1 .9l-1.8 3.5c-.7 1.4-1.6 1.6-2.1 1.5-.5 0-1.3-.3-1.8-1.8l-2.8-8.6c-.2-.5-.5-.9-.9-1-.4-.1-.9-.1-1.3.2l-3.3 2.1c-1.3.9-2.2.5-2.6.3s-1-.9-.7-2.5l1.8-8.7c.1-.5 0-1-.3-1.3-.2-.4-.7-.6-1.2-.5l-4 .2c-1.6.1-2.2-.6-2.4-1.1-.2-.4-.4-1.3.7-2.5l6-6.7c.4-.4.5-.9.4-1.3s-.4-.8-.9-1l-3.5-1.8c-1.4-.7-1.6-1.6-1.5-2.1s.3-1.3 1.8-1.8l8.5-2.8c.5-.2.9-.5 1-.9.1-.4.1-.9-.2-1.3l-2.1-3.3c-.9-1.3-.5-2.2-.3-2.6.3-.4.9-1 2.5-.7l8.8 1.8c.5.1 1 0 1.3-.3.4-.2.6-.7.5-1.2l-.2-4c-.1-1.6.6-2.2 1.1-2.4.4-.2 1.3-.4 2.5.7l6.7 6c.4.4.9.5 1.3.4.4-.1.8-.4 1-.9l1.8-3.5c.7-1.4 1.6-1.6 2.1-1.5s1.3.3 1.8 1.8l2.8 8.5c.2.5.5.9.9 1 .4.1.9.1 1.3-.2l3.3-2.1c1.3-.9 2.2-.5 2.6-.3.4.3 1 .9.7 2.5l-1.8 8.8c-.1.5 0 1 .3 1.3.3.3.7.5 1.3.5l4-.2c1.6-.1 2.2.6 2.4 1.1s.4 1.3-.7 2.5l-6 6.7c-.4.4-.5.9-.4 1.3.1.4.4.8.9 1l3.5 1.8c1.4.7 1.6 1.6 1.5 2.1s-.3 1.3-1.8 1.8l-8.7 2.8c-.5.2-.9.5-1 .9s-.1.9.2 1.3l2.1 3.3c.9 1.3.5 2.2.3 2.6-.3.4-.9 1-2.5.7l-8.7-1.8c-.5-.1-1 0-1.3.3-.3.3-.5.7-.5 1.3l.2 4c.1 1.6-.6 2.2-1.1 2.4-.2-.1-.4 0-.7 0zm-9.5-9c.8 0 1.6.3 2.2.9l6.7 6c.3.3.5.4.6.4 0-.1.1-.3.1-.7l-.2-4c0-1.1.3-2 1.1-2.7s1.8-.9 2.8-.6l8.8 1.8c.4.1.6.1.7 0 0-.1-.1-.3-.3-.7l-2.1-3.3c-.6-.9-.7-1.9-.4-2.8s1.1-1.6 2.1-1.9l8.5-2.8c.4-.1.6-.3.6-.3-.1-.1-.2-.2-.6-.4l-3.5-1.9c-.9-.5-1.6-1.3-1.8-2.3s.1-1.9.8-2.7l6-6.7c.3-.3.4-.5.4-.6-.1 0-.3-.1-.7-.1l-4 .2c-1.1 0-2-.3-2.7-1.1s-.8-1.7-.6-2.7l1.8-8.8c.1-.4.1-.6 0-.7-.1 0-.3.1-.7.3l-3.3 2.1c-.9.6-1.9.7-2.8.4s-1.6-1.1-1.9-2.1l-2.8-8.5c-.1-.4-.3-.6-.3-.6-.1.1-.2.2-.4.6l-1.9 3.5c-.5.9-1.3 1.6-2.3 1.8-.9.2-1.9-.1-2.7-.8l-6.7-6c-.3-.3-.5-.4-.6-.4 0 .1-.1.3-.1.7l.2 4c0 1.1-.3 2-1.1 2.7-.6.5-1.7.7-2.7.5l-8.8-1.8c-.4-.1-.6-.1-.7 0 0 .1.1.3.3.7l2.1 3.3c.6.9.7 1.9.4 2.8-.3.9-1.1 1.6-2.1 1.9l-8.5 2.8c-.4.1-.6.3-.6.3.1.1.2.2.6.4l3.5 1.9c.9.5 1.6 1.3 1.8 2.3s-.2 1.9-.9 2.7l-6 6.7c-.3.3-.4.5-.4.6.1 0 .3.1.7.1l4-.2c1.1 0 2 .3 2.7 1.1.6.7.8 1.7.6 2.7l-1.8 8.8c-.1.4-.1.6 0 .7.1 0 .3-.1.7-.3l3.3-2.1c.9-.6 1.9-.7 2.8-.4s1.6 1.1 1.9 2.1l2.8 8.5c.1.4.3.6.3.6.1-.1.2-.2.4-.6l1.8-3.5c.5-.9 1.3-1.6 2.3-1.8h.6zM29.5 38.3c-4.9 0-8.8-4-8.8-8.8s4-8.8 8.8-8.8c4.9 0 8.8 4 8.8 8.8 0 4.9-3.9 8.8-8.8 8.8zm0-15.9c-3.9 0-7.1 3.2-7.1 7.1s3.2 7.1 7.1 7.1 7.1-3.2 7.1-7.1c0-3.9-3.2-7.1-7.1-7.1z"/></svg>