<svg xmlns="http://www.w3.org/2000/svg" width="59" height="59" viewBox="0 0 59 59"><style type="text/css">.st0{fill:#0B9CCE;}</style><path class="st0" d="M58.8 11.7l-.1-.2-11.3-11.2-.2-.1c-.9-.3-1.6-.3-2.3 0-1.1.5-1.8 2-2 4-.1 1.8.3 3.7 1 5.3v.1l.2.4-24.4 24.5-4.4-4.5c-.8-.8-2.1-.8-2.8 0l-9 9c-4.6 4.6-4.6 12 0 16.5 2.2 2.2 5.1 3.4 8.3 3.4s6.1-1.2 8.3-3.4l9-9c.4-.4.6-.9.6-1.4s-.2-1-.6-1.4l-4.5-4.5 24.4-24.5c.2.1.3.2.5.2 1.4.6 3.2 1 4.7 1h.5c2-.1 3.4-.8 4-1.9.4-.6.4-1.4.1-2.3zm-31 33.4c0 .1 0 .1-.1.2l-9 9c-1.9 1.9-4.4 2.9-7.1 2.9s-5.2-1-7.1-2.9c-3.9-3.9-3.9-10.2 0-14.1l9-9c.1-.1.3-.1.4 0l6.2 6.2-3.8 3.8 1.2 1.2 3.8-3.8 6.2 6.2c.3.2.3.3.3.3zm-4.5-7.1l-2.3-2.3 24.2-24.2c.7.9 1.4 1.7 2.3 2.3l-24.2 24.2zm33.9-24.7c-.5 1.1-4.1 1.3-7 .1-2-.8-3.6-2.5-4.6-4.6v-.1c-1.4-2.9-.9-6.5.1-7 .1 0 .2-.1.4-.1.1 0 .3 0 .4.1l10.7 10.7c.1.4.1.7 0 .9z"/></svg>