<svg xmlns="http://www.w3.org/2000/svg" width="34.2" height="59" viewBox="0 0 34.2 59"><style type="text/css">.st0{fill:#0B9CCE;}</style><path class="st0" d="M1.9 59c-.3 0-.7 0-1-.3-.7-.5-1-1.4-.6-2.2l10.2-24.3h-8.6c-.6 0-1.2-.4-1.6-.9-.4-.6-.4-1.3 0-1.9l14.3-28.5c.4-.6.9-.9 1.6-.9h15.3c.6 0 1.2.3 1.6.9.4.6.4 1.3 0 1.9l-10.4 16.3h9.7c.7 0 1.3.4 1.6 1 .3.6.3 1.3-.1 1.9l-30.6 36.4c-.4.4-.9.6-1.4.6zm-.1-1.7h.2l30.5-36.2c.1-.1 0-.1 0-.2s-.1-.1-.1-.1h-12.8l12-19-.1-.1h-15.3s-.1 0-.1.1l-14.4 28.6s.1.1.2.1h11.1l-11.2 26.8zm.1-26.7z"/></svg>