<svg xmlns="http://www.w3.org/2000/svg" width="55.5" height="75" viewBox="0 0 55.5 75"><style type="text/css">.st0{fill:#0B9CCE;}</style><path class="st0" d="M13.6 74.4h-2v-69.4c-.8 1.4-1.8 2.5-2.9 3.5-2.1 2-5 3.1-8.6 3.3l-.1-1.9c3.1-.3 5.6-1.2 7.4-2.9 1.8-1.7 3.3-4 4.3-6.9l.9.3h1v74zM39.2 2c4.8 0 8.3 1.4 10.6 4.3 2.4 3 3.6 7.2 3.6 12.4v37.7c0 5.2-1.2 9.3-3.6 12.3-2.3 2.9-5.8 4.3-10.6 4.3s-8.3-1.4-10.6-4.3c-2.4-3-3.6-7.1-3.6-12.3v-37.7c0-5.2 1.2-9.4 3.6-12.4 2.3-2.9 5.8-4.3 10.6-4.3m0-2c-5.4 0-9.5 1.7-12.2 5.1-2.7 3.4-4 7.9-4 13.6v37.7c0 5.7 1.3 10.2 4 13.6 2.7 3.4 6.7 5.1 12.2 5.1s9.5-1.7 12.2-5.1c2.7-3.4 4.1-7.9 4.1-13.6v-37.7c0-5.7-1.4-10.2-4.1-13.6-2.7-3.4-6.8-5.1-12.2-5.1z"/></svg>