<svg xmlns="http://www.w3.org/2000/svg" width="59" height="59" viewBox="0 0 59 59"><style type="text/css">.st0{fill:#0B9CCE;}</style><path class="st0" d="M12.8 17.1h-8.6c-2.3 0-4.2-1.9-4.2-4.2v-8.7c0-2.3 1.9-4.2 4.2-4.2h8.6c2.3 0 4.2 1.9 4.2 4.2v8.6c.1 2.4-1.8 4.3-4.2 4.3zm-8.6-15.4c-1.4 0-2.5 1.1-2.5 2.5v8.6c0 1.4 1.1 2.5 2.5 2.5h8.6c1.4 0 2.5-1.1 2.5-2.5v-8.6c0-1.4-1.1-2.5-2.5-2.5h-8.6zM31.9 17.1h-8.6c-2.3 0-4.2-1.9-4.2-4.2v-8.7c0-2.3 1.9-4.2 4.2-4.2h8.6c2.3 0 4.2 1.9 4.2 4.2v8.6c0 2.4-1.9 4.3-4.2 4.3zm-8.6-15.4c-1.4 0-2.5 1.1-2.5 2.5v8.6c0 1.4 1.1 2.5 2.5 2.5h8.6c1.4 0 2.5-1.1 2.5-2.5v-8.6c0-1.4-1.1-2.5-2.5-2.5h-8.6zM51 17.1h-8.6c-2.3 0-4.2-1.9-4.2-4.2v-8.7c0-2.3 1.9-4.2 4.2-4.2h8.6c2.3 0 4.2 1.9 4.2 4.2v8.6c0 2.4-1.9 4.3-4.2 4.3zm-8.6-15.4c-1.4 0-2.5 1.1-2.5 2.5v8.6c0 1.4 1.2 2.5 2.5 2.5h8.6c1.4 0 2.5-1.1 2.5-2.5v-8.6c0-1.4-1.1-2.5-2.5-2.5h-8.6zM12.8 36.2h-8.6c-2.3 0-4.2-1.9-4.2-4.2v-8.6c0-2.3 1.9-4.2 4.2-4.2h8.6c2.3 0 4.2 1.9 4.2 4.2v8.6c.1 2.3-1.8 4.2-4.2 4.2zm-8.6-15.4c-1.4 0-2.5 1.1-2.5 2.5v8.6c0 1.4 1.1 2.5 2.5 2.5h8.6c1.4 0 2.5-1.1 2.5-2.5v-8.6c0-1.4-1.1-2.5-2.5-2.5h-8.6zM31.9 36.2h-8.6c-2.3 0-4.2-1.9-4.2-4.2v-8.6c0-2.3 1.9-4.2 4.2-4.2h8.6c2.3 0 4.2 1.9 4.2 4.2v8.6c0 2.3-1.9 4.2-4.2 4.2zm-8.6-15.4c-1.4 0-2.5 1.1-2.5 2.5v8.6c0 1.4 1.1 2.5 2.5 2.5h8.6c1.4 0 2.5-1.1 2.5-2.5v-8.6c0-1.4-1.1-2.5-2.5-2.5h-8.6zM51 36.2h-8.6c-2.3 0-4.2-1.9-4.2-4.2v-8.6c0-2.3 1.9-4.2 4.2-4.2h8.6c2.3 0 4.2 1.9 4.2 4.2v8.6c0 2.3-1.9 4.2-4.2 4.2zm-8.6-15.4c-1.4 0-2.5 1.2-2.5 2.5v8.6c0 1.4 1.1 2.5 2.5 2.5h8.6c1.4 0 2.5-1.1 2.5-2.5v-8.6c0-1.4-1.1-2.5-2.5-2.5h-8.6zM12.8 55.3h-8.6c-2.3 0-4.2-1.9-4.2-4.3v-8.6c0-2.3 1.9-4.2 4.2-4.2h8.6c2.3 0 4.2 1.9 4.2 4.2v8.6c.1 2.4-1.8 4.3-4.2 4.3zm-8.6-15.4c-1.4 0-2.5 1.1-2.5 2.5v8.6c0 1.4 1.1 2.5 2.5 2.5h8.6c1.4 0 2.5-1.1 2.5-2.5v-8.6c0-1.4-1.1-2.5-2.5-2.5h-8.6zM31.9 55.3h-8.6c-2.3 0-4.2-1.9-4.2-4.2v-8.6c0-2.3 1.9-4.2 4.2-4.2h8.6c2.3 0 4.2 1.9 4.2 4.2v8.5c0 2.4-1.9 4.3-4.2 4.3zm-8.6-15.4c-1.4 0-2.5 1.1-2.5 2.5v8.6c0 1.4 1.1 2.5 2.5 2.5h8.6c1.4 0 2.5-1.1 2.5-2.5v-8.6c0-1.4-1.1-2.5-2.5-2.5h-8.6zM54.7 59h-8.6c-2.3 0-4.2-1.9-4.2-4.2v-8.6c0-2.3 1.9-4.2 4.2-4.2h8.6c2.3 0 4.2 1.9 4.2 4.2v8.6c.1 2.3-1.8 4.2-4.2 4.2zm-8.5-15.3c-1.4 0-2.5 1.1-2.5 2.5v8.6c0 1.4 1.1 2.5 2.5 2.5h8.6c1.4 0 2.5-1.1 2.5-2.5v-8.6c0-1.4-1.1-2.5-2.5-2.5h-8.6z"/></svg>