<svg xmlns="http://www.w3.org/2000/svg" width="61.7" height="59" viewBox="0 0 61.7 59"><style type="text/css">.st0{fill:#0B9CCE;}</style><path class="st0" d="M6.7 59h-3.9c-1.5 0-2.8-1.3-2.8-2.8v-17.5c0-1.5 1.3-2.8 2.8-2.8h3.9c1.5 0 2.8 1.3 2.8 2.8v17.5c0 1.5-1.3 2.8-2.8 2.8zm-3.9-21.4c-.6 0-1.1.5-1.1 1.1v17.5c0 .6.5 1.1 1.1 1.1h3.9c.6 0 1.1-.5 1.1-1.1v-17.5c0-.6-.5-1.1-1.1-1.1h-3.9zM58.9 9.5h-17.5c-1.5 0-2.8-1.3-2.8-2.8v-3.9c0-1.5 1.3-2.8 2.8-2.8h17.5c1.5 0 2.8 1.3 2.8 2.8v3.9c0 1.5-1.3 2.8-2.8 2.8zm-17.5-7.8c-.6 0-1.1.5-1.1 1.1v3.9c0 .6.5 1.1 1.1 1.1h17.5c.6 0 1.1-.5 1.1-1.1v-3.9c0-.6-.5-1.1-1.1-1.1h-17.5zM29 56.1h-19.4c-1.1 0-1.8-.8-1.8-1.8v-13.6c0-1.1.8-1.8 1.8-1.8h19.4c7 0 12.7-5.7 12.7-12.7v-16.6c0-1.1.8-1.8 1.8-1.8h13.6c1.1 0 1.8.8 1.8 1.8v16.5c.1 16.5-13.4 30-29.9 30zm-19.4-15.5c-.1 0-.1.1-.1.1v13.7h19.5c15.6 0 28.3-12.7 28.3-28.3v-16.6h-13.799999999999999v16.6c0 8-6.5 14.5-14.5 14.5h-19.4zM8.6 50h7.4v1.7h-7.4zM52.5 12.1h1.7v4.2h-1.7z"/></svg>