<svg xmlns="http://www.w3.org/2000/svg" width="68.2" height="68.2" viewBox="0 0 68.2 68.2"><style type="text/css">.st0{fill:#0B9CCE;}</style><path class="st0" d="M65.8 28.6h-.7v-10.4c0-3.2-2.5-5.8-5.6-5.8h-46.3l40.5-10.4h.2c1.9 0 3.4 1.7 3.4 3.8v5.1h2v-5.1c0-3.2-2.4-5.8-5.4-5.8h-.4l-48.4 12.4c-2.9.3-5.1 2.8-5.1 5.8v44.3c0 3.2 2.5 5.8 5.6 5.8h53.9c3.2 0 5.8-2.5 5.8-5.8v-10.8h.6c1.4 0 2.4-1 2.4-2.4v-18.3c-.1-1.3-1.1-2.4-2.5-2.4zm-2.5 33.9c0 2.1-1.7 3.8-3.8 3.8h-53.9c-2 0-3.7-1.7-3.7-3.8v-44.3c0-2 1.5-3.6 3.4-3.8h54.1c2 0 3.7 1.7 3.7 3.8v10.4h-15.7c-6.5 0-11.6 5.1-11.6 11.6 0 6.4 5.2 11.6 11.6 11.6h15.9v10.7zm3-13.2c0 .3-.1.4-.4.4h-18.5c-5.3 0-9.6-4.3-9.6-9.6 0-5.4 4.2-9.6 9.6-9.6h18.5c.2 0 .4.1.4.4v18.4zM46.4 39.2h4.3v2h-4.3z"/></svg>