<svg xmlns="http://www.w3.org/2000/svg" width="60.9" height="59" viewBox="0 0 60.9 59"><style type="text/css">.st0{fill:#0B9CCE;}</style><path class="st0" d="M60.9 1.8c0-1-.8-1.8-1.8-1.8h-27.7c-.4 0-.7.1-1 .2-.3-.2-.6-.2-1-.2h-27.6c-1 0-1.8.8-1.8 1.8v55.4c0 1 .8 1.8 1.8 1.8h27.7c.5 0 1-.2 1.3-.5.3-.3.5-.8.5-1.3v-10.6h24c3.2 0 5.6-3.3 5.6-7.5v-37.3zm-9.2 31.4c-1.2 1.4-2 3.5-2 5.8s.8 4.5 2 5.8h-24.1c-2.2 0-3.9-2.6-3.9-5.8 0-3.2 1.8-5.8 3.9-5.8h24.1zm-22.1 24l-27.8.1h-.1v-55.6h27.900000000000002v29.8h-2c-3.2 0-5.6 3.3-5.6 7.5s2.5 7.5 5.6 7.5h2v10.7zm25.7-12.3c-2.2 0-3.9-2.6-3.9-5.8 0-3.2 1.8-5.8 3.9-5.8s3.9 2.6 3.9 5.8c0 3.2-1.8 5.8-3.9 5.8zm0-13.4h-24v-29.8h27.900000000000002v31.900000000000002c-1-1.3-2.4-2.1-3.9-2.1z"/></svg>